# xmcd CD database file
#
# Track frame offsets:
#	150
#	23822
#	43133
#	59276
#	81079
#	94268
#	111113
#	132699
#	151144
#	166041
#	183266
#
# Disc length: 2707 seconds
#
# Revision: 0
# Processed by: cddbd v1.5.2PL0 Copyright (c) Steve Scherf et al.
# Submitted via: CDex 1.51
#
DISCID=880a910b
DTITLE=Lenka Dusilova - Baromantika
DYEAR=2011
DGENRE=Jazz
TTITLE0=Baromanticka
TTITLE1=Mrazy
TTITLE2=Kralovstvi Zvyku
TTITLE3=Luna
TTITLE4=Moje Mila Ma Vsechny Prednosti Vody
TTITLE5=Wspomnienie
TTITLE6=Brother
TTITLE7=Smiluje
TTITLE8=Ptaci
TTITLE9=Valerie
TTITLE10=Kontrapunk
EXTD=YEAR: 2011
EXTT0=
EXTT1=
EXTT2=
EXTT3=
EXTT4=
EXTT5=
EXTT6=
EXTT7=
EXTT8=
EXTT9=
EXTT10=
PLAYORDER=
